<svg version="1.1" xmlns="http://www.w3.org/2000/svg" xmlns:xlink="http://www.w3.org/1999/xlink" width="48" height="48"><defs><linearGradient x1="13.97529" y1="11.67153" x2="74.68337" y2="76.98715" gradientUnits="userSpaceOnUse" id="color-1"><stop offset="0" stop-color="#000000" stop-opacity="0.08"></stop><stop offset="1" stop-color="#000000" stop-opacity="0"></stop></linearGradient><filter id="dropshadow-base"><feColorMatrix type="matrix" values="0 0 0 0 0  0 0 0 0 0  0 0 0 0 0  0 0 0 .8 0"></feColorMatrix> <feOffset dx="0" dy="1"></feOffset> <feGaussianBlur stdDeviation="1"></feGaussianBlur> <feComposite in="SourceGraphic"></feComposite></filter><filter id="dropshadow-banner" x="-10%" y="-10%" width="120%" height="130%"><feColorMatrix type="matrix" values="0 0 0 0 0  0 0 0 0 0  0 0 0 0 0  0 0 0 .4 0"></feColorMatrix> <feOffset dx="0" dy="1"></feOffset> <feGaussianBlur stdDeviation="0.5"></feGaussianBlur> <feComposite in="SourceGraphic"></feComposite></filter></defs><g fill="none" fill-rule="nonzero" stroke="none" stroke-width="none" stroke-linecap="butt" stroke-linejoin="miter" stroke-miterlimit="10" stroke-dasharray="" stroke-dashoffset="0" font-family="none" font-weight="none" font-size="none" text-anchor="none" style="mix-blend-mode: normal"><path d="M2,24c0,-12.15026 9.84974,-22 22,-22c12.15026,0 22,9.84974 22,22c0,12.15026 -9.84974,22 -22,22c-12.15026,0 -22,-9.84974 -22,-22z" id="base 1 5" fill="#0a90ad" stroke-width="1"></path><path d="M28.83921,14.55182c1.28447,-2.13581 2.51317,-3.11548 3.55349,-2.8326c0.0011,0.0003 0.00219,0.00062 0.00329,0.00095c0.23758,0.0652 0.45026,0.19228 0.63732,0.37934l12.94245,12.94245c-0.53194,11.40871 -9.75365,20.54631 -21.19683,20.94451l-10.2228,-10.2228c-0.3488,-0.3488 -0.56483,-0.83036 -0.56485,-1.36144l0,-1.92631l-0.0001,-0.0001l0,-3.11167l-0.01589,-0.01589v-2.99066c0.00529,-0.00269 0.01058,-0.00535 0.01589,-0.00801v-3.11985h0.0001v-2.37313c0,-0.56302 0.24523,-1.09613 0.67272,-1.46252l2.02408,-1.73494l0,-1.20431l-0.65764,-0.65764c-0.06972,-0.06972 -0.11285,-0.16604 -0.11285,-0.27242c0,-0.21274 0.17248,-0.38524 0.38522,-0.38527v-1.92628c0,-0.21276 0.1725,-0.38527 0.38527,-0.38527h0.77053l0.00005,0.00005h2.31149c0.10639,0 0.20271,0.04313 0.27243,0.11285l3.73455,3.73455c0.0218,-0.01188 0.04396,-0.02327 0.06644,-0.03413c0.49347,-0.23848 1.08216,-0.19514 1.53639,0.11303c0.02039,0.01382 0.03918,0.02939 0.05623,0.04645l1.57297,1.57297c0.56387,-1.44795 1.18478,-2.74902 1.83004,-3.82193z" fill="url(#color-1)" stroke-width="1"></path><path transform="translate(-5.58836,-5.58836) scale(1.23285,1.23285)" d="M23.30303,20.97215c0.00685,0 0.01371,0.00002 0.02061,0.00007l-1.06086,-2.19566c-0.07508,-0.15543 -0.00996,-0.34226 0.14543,-0.41734c0.15543,-0.07512 0.34223,-0.00996 0.41734,0.14543l1.06087,2.19567c0.54548,-0.69742 1.16021,-0.84729 1.6128,-0.83575c0.24306,0.00612 0.48588,0.05987 0.72322,0.15133c0.5132,-1.40744 1.09466,-2.66844 1.70279,-3.6796c1.04187,-1.73242 2.03851,-2.52706 2.88234,-2.29761c0.00089,0.00024 0.00178,0.0005 0.00267,0.00077c0.84201,0.23108 1.29852,1.42038 1.32018,3.43973c0.01567,1.46131 -0.19791,3.23239 -0.60947,5.10388l0.11029,-0.08271c0.09461,-0.07102 0.22133,-0.08246 0.32723,-0.02949c0.10586,0.05293 0.17273,0.16113 0.17289,0.27949v9.99974c0,0.17258 -0.13992,0.3125 -0.3125,0.3125h-9.19286c-0.24158,0.55131 -0.79254,0.93742 -1.43196,0.93742h-3.74991c-0.86156,0 -1.56246,-0.7009 -1.5625,-1.56246v-1.56257h-0.00008l0,-2.53036c-0.00431,-0.00216 -0.00861,-0.00433 -0.01289,-0.0065v-2.42581c0.00429,-0.00218 0.00858,-0.00434 0.01289,-0.0065l0,-2.5306h0.00008v-1.92492c0,-0.45668 0.19891,-0.8891 0.54566,-1.18629l1.64179,-1.40726l0,-1.41871c-0.00165,0 -0.0033,-0.00001 -0.00495,-0.00004h-0.30751c-0.17258,0 -0.3125,-0.13992 -0.3125,-0.3125c0,-0.17256 0.1399,-0.31248 0.31246,-0.3125v-1.56246c0,-0.17258 0.13992,-0.3125 0.3125,-0.3125h0.625c-0.00167,0 -0.00333,0.00001 -0.00499,0.00004h1.87995c0.17258,0 0.3125,0.13992 0.3125,0.31246v1.56246c0.17258,0 0.3125,0.13992 0.3125,0.3125c-0.00004,0.17258 -0.13992,0.3125 -0.3125,0.3125h-0.30751c-0.00166,0.00003 -0.00332,0.00004 -0.00499,0.00004v1.41871l1.64183,1.40726c0.2408,0.20638 0.41027,0.47798 0.49136,0.77763c0.17696,-0.04397 0.37635,-0.06946 0.60081,-0.06945zM25.25558,18.40465c-0.03316,0.44394 -0.30238,0.83992 -0.70269,1.03332c-0.17152,0.08289 -0.35734,0.12379 -0.54262,0.12379c-0.24703,0.00004 -0.49308,-0.07266 -0.70363,-0.21547c-0.09258,-0.06281 -0.14453,-0.17031 -0.13621,-0.28187c0.03316,-0.44394 0.30242,-0.83988 0.70269,-1.03328c0.40027,-0.19344 0.87777,-0.15828 1.24621,0.09168c0.09258,0.06273 0.14453,0.17027 0.13625,0.28184z" fill="none" stroke-width="0"></path><g id="Layer_1 2" stroke-width="1"><path d="M34.02356,15.96082c-0.02673,-2.49218 -0.59071,-3.95888 -1.63087,-4.24157c-1.04031,-0.28288 -2.26901,0.6968 -3.55348,2.83261c-1.18714,1.9739 -2.29184,4.72002 -3.11053,7.7324c-0.81869,3.01238 -1.25596,5.93991 -1.23126,8.24316c0.02673,2.49218 0.59071,3.95888 1.63087,4.24157c0.11707,0.03183 0.23646,0.04763 0.3581,0.04763c0.95926,0 2.05543,-0.98478 3.19538,-2.88019c1.18714,-1.9739 2.29184,-4.72002 3.11053,-7.7324c0.81869,-3.01238 1.25596,-5.93991 1.23126,-8.24321z" fill="#f59f3f"></path><path d="M25.26786,30.52737c-0.02471,-2.30325 0.41257,-5.23073 1.23126,-8.24316c0.81869,-3.01243 1.92338,-5.7585 3.11053,-7.7324c0.98719,-1.64147 1.94135,-2.59914 2.80246,-2.82654c-0.0065,-0.00188 -0.01286,-0.00429 -0.01941,-0.00607c-1.04031,-0.28288 -2.26901,0.6968 -3.55348,2.83261c-1.18714,1.9739 -2.29184,4.72002 -3.11053,7.7324c-0.81869,3.01238 -1.25596,5.93991 -1.23126,8.24316c0.02673,2.49218 0.59071,3.95888 1.63087,4.24157c0.11707,0.03183 0.23646,0.04763 0.3581,0.04763c0.12868,0 0.25991,-0.0183 0.39331,-0.0536c-1.02788,-0.2955 -1.58527,-1.75888 -1.61185,-4.23559z" fill="#f2821c"></path><g fill="#e57712"><path d="M30.96211,18.10342c0.16605,0 0.31934,-0.10821 0.36908,-0.27546c0.06068,-0.20395 -0.05543,-0.41845 -0.25938,-0.47912l-3.2119,-0.95574c-0.10922,0.23005 -0.21705,0.46622 -0.32343,0.70768l3.31558,0.98661c0.03665,0.01084 0.07363,0.01604 0.11004,0.01604z"></path><path d="M30.42457,21.55037c0.1674,0 0.32145,-0.10994 0.37005,-0.27888c0.05885,-0.20448 -0.05923,-0.41792 -0.26376,-0.47672l-3.98941,-1.14761c-0.08346,0.24079 -0.16537,0.48452 -0.24541,0.73114l4.02182,1.1569c0.03559,0.01031 0.07142,0.01517 0.10672,0.01517z"></path></g><g fill="#f2821c"><path d="M31.32763,15.13934c0,-0.21278 0.17249,-0.38526 0.38526,-0.38526c0.21278,0 0.38526,0.17249 0.38526,0.38526c0,0.21278 -0.17249,0.38526 -0.38526,0.38526c-0.21278,0 -0.38526,-0.17249 -0.38526,-0.38526z"></path><path d="M32.09811,17.06561c0,-0.21278 0.17249,-0.38526 0.38526,-0.38526c0.21278,0 0.38526,0.17249 0.38526,0.38526c0,0.21278 -0.17249,0.38526 -0.38526,0.38526c-0.21278,0 -0.38526,-0.17249 -0.38526,-0.38526z"></path><path d="M30.5571,19.37715c0,-0.21278 0.17249,-0.38526 0.38526,-0.38526c0.21278,0 0.38526,0.17249 0.38526,0.38526c0,0.21278 -0.17249,0.38526 -0.38526,0.38526c-0.21278,0 -0.38526,-0.17249 -0.38526,-0.38526z"></path><path d="M31.32763,21.30342c0,-0.21278 0.17249,-0.38526 0.38526,-0.38526c0.21278,0 0.38526,0.17249 0.38526,0.38526c0,0.21278 -0.17249,0.38526 -0.38526,0.38526c-0.21278,0 -0.38526,-0.17249 -0.38526,-0.38526z"></path></g><path d="M25.37997,16.75432c-0.45423,-0.30816 -1.04291,-0.35151 -1.53639,-0.11303c-0.49348,0.23843 -0.82543,0.72656 -0.86631,1.27388c-0.01026,0.13754 0.05379,0.27007 0.16793,0.34751c0.25957,0.17607 0.56292,0.26569 0.86747,0.26564c0.22841,0 0.4575,-0.05042 0.66896,-0.15261c0.49352,-0.23843 0.82543,-0.72661 0.86631,-1.27392c0.01021,-0.13754 -0.05384,-0.27012 -0.16798,-0.34746z" fill="#00b5b8"></path><path d="M23.71385,20.89995c-0.14322,0 -0.28071,-0.08018 -0.34717,-0.21772l-1.50841,-3.12194c-0.09256,-0.19162 -0.01228,-0.42196 0.17929,-0.51452c0.19162,-0.09261 0.42191,-0.01228 0.51452,0.17929l1.50841,3.12194c0.09256,0.19162 0.01228,0.42196 -0.17929,0.51452c-0.05403,0.02605 -0.1111,0.03843 -0.16735,0.03843z" fill="#787485"></path><path d="M29.48053,21.82382c-0.68803,-1.42398 -2.15661,-2.885 -3.63222,-2.92218c-0.62914,-0.01604 -1.5124,0.2209 -2.24089,1.39326c-1.37116,-0.15786 -2.10537,0.38661 -2.48418,0.88967c-0.88799,1.17915 -0.65606,3.23771 0.03203,4.66179c0.51606,1.06805 1.44161,1.74048 2.67672,1.94457c0.25259,0.04175 0.51322,0.06227 0.77756,0.06222c0.80323,0 1.64007,-0.18955 2.38445,-0.54919c0.98931,-0.47802 1.84464,-1.2706 2.3466,-2.17458c0.60756,-1.09444 0.65596,-2.23752 0.13995,-3.30557z" fill="#e6608d"></path><path d="M27.64339,25.54137c-0.26434,0 -0.52497,-0.02052 -0.77756,-0.06222c-1.23501,-0.20409 -2.16066,-0.87652 -2.67672,-1.94457c-0.46087,-0.95377 -0.71645,-2.19201 -0.5686,-3.26025c-0.00438,0.00698 -0.00881,0.01353 -0.0132,0.02056c-1.37116,-0.15786 -2.10537,0.38661 -2.48418,0.88967c-0.88799,1.17915 -0.65606,3.23771 0.03203,4.66179c0.51606,1.06805 1.44161,1.74048 2.67672,1.94457c0.25259,0.04175 0.51322,0.06227 0.77756,0.06222c0.80323,0 1.64007,-0.18955 2.38445,-0.54919c0.92709,-0.44792 1.73634,-1.17207 2.24758,-2.0052c-0.52319,0.15955 -1.0679,0.24262 -1.59808,0.24262z" fill="#d4506f"></path><path d="M33.81157,22.11479c-0.13056,-0.0653 -0.28678,-0.05119 -0.40342,0.03636l-1.30985,0.98238l-1.30985,-0.98238c-0.13696,-0.10277 -0.32536,-0.10277 -0.46232,0l-1.30985,0.98238l-1.30985,-0.98238c-0.13696,-0.10277 -0.32536,-0.10277 -0.46232,0l-1.30985,0.98238l-1.30985,-0.98238c-0.13696,-0.10277 -0.32536,-0.10277 -0.46232,0l-1.30985,0.98238l-1.30985,-0.98238c-0.13696,-0.10277 -0.32536,-0.10277 -0.46232,0l-1.30985,0.98238l-1.30985,-0.98238c-0.11674,-0.0876 -0.27296,-0.10166 -0.40342,-0.03636c-0.13051,0.06525 -0.21295,0.19865 -0.21295,0.34457v12.32816c0,0.21276 0.1725,0.38526 0.38526,0.38526h15.41018c0.21276,0 0.38526,-0.1725 0.38526,-0.38526v-12.32816c-0.00019,-0.14592 -0.08264,-0.27932 -0.21315,-0.34457z" fill="#e1e0e4"></path><path d="M24.16205,22.15115l-1.30985,0.98238l-1.30985,-0.98238c-0.13696,-0.10277 -0.32536,-0.10277 -0.46232,0l-1.30985,0.98238l-1.30985,-0.98238c-0.11674,-0.0876 -0.27296,-0.10166 -0.40342,-0.03636c-0.13051,0.06525 -0.21295,0.19865 -0.21295,0.34457v12.32816c0,0.21276 0.1725,0.38526 0.38526,0.38526h6.148v-13.09744c-0.07604,0.00318 -0.15122,0.02784 -0.21517,0.0758z" fill="#d2d1d6"></path><g fill="#b4b2bb"><path d="M26.7047,27.46765h-2.6968c-0.21276,0 -0.38526,-0.1725 -0.38526,-0.38526c0,-0.21276 0.1725,-0.38526 0.38526,-0.38526h2.6968c0.21276,0 0.38526,0.1725 0.38526,0.38526c0,0.21276 -0.1725,0.38526 -0.38526,0.38526z"></path><path d="M29.01624,29.77918h-5.00829c-0.21276,0 -0.38526,-0.1725 -0.38526,-0.38526c0,-0.21276 0.1725,-0.38526 0.38526,-0.38526h5.00829c0.21276,0 0.38526,0.1725 0.38526,0.38526c0,0.21276 -0.1725,0.38526 -0.38526,0.38526z"></path><path d="M29.01624,32.09067h-5.00829c-0.21276,0 -0.38526,-0.1725 -0.38526,-0.38526c0,-0.21276 0.1725,-0.38526 0.38526,-0.38526h5.00829c0.21276,0 0.38526,0.1725 0.38526,0.38526c0,0.21281 -0.1725,0.38526 -0.38526,0.38526z"></path></g><path d="M21.79427,19.39405l-2.02413,-1.73494v-2.13436c0,-0.21276 -0.1725,-0.38526 -0.38526,-0.38526h-2.31154c-0.21276,0 -0.38526,0.1725 -0.38526,0.38526v2.13436l-2.02408,1.73494c-0.4275,0.36639 -0.67272,0.8995 -0.67272,1.46251v13.54565c0.00005,1.06217 0.86415,1.92627 1.92632,1.92627h4.62307c1.06213,0 1.92627,-0.86415 1.92627,-1.92627v-13.54565c-0.00005,-0.56302 -0.24517,-1.09612 -0.67267,-1.46251z" fill="#68dec8"></path><path d="M15.14706,34.40221v-13.54565c0,-0.56306 0.24517,-1.09612 0.67272,-1.46251l2.02408,-1.73494v-2.13436c0,-0.21276 0.1725,-0.38526 0.38526,-0.38526h-1.15574c-0.21276,0 -0.38526,0.1725 -0.38526,0.38526v2.13436l-2.02408,1.73494c-0.4275,0.36639 -0.67272,0.8995 -0.67272,1.46251v13.54565c0,1.06217 0.8641,1.92627 1.92627,1.92627h1.15574c-1.06213,0 -1.92627,-0.8641 -1.92627,-1.92627z" fill="#38c7c2"></path><path d="M19.77014,12.82799h-3.08202c-0.21276,0 -0.38526,0.1725 -0.38526,0.38526v2.31154c0,0.21276 0.1725,0.38526 0.38526,0.38526h3.08202c0.21276,0 0.38526,-0.1725 0.38526,-0.38526v-2.31158c0,-0.21271 -0.1725,-0.38522 -0.38526,-0.38522z" fill="#878493"></path><path d="M17.07334,15.52475v-2.31154c0,-0.21276 0.1725,-0.38526 0.38526,-0.38526h-0.77053c-0.21276,0 -0.38526,0.1725 -0.38526,0.38526v2.31154c0,0.21276 0.1725,0.38526 0.38526,0.38526h0.77053c-0.21281,0 -0.38526,-0.1725 -0.38526,-0.38526z" fill="#787485"></path><path d="M20.1554,23.22984h-6.16408v9.2461h6.16408c0.21276,0 0.38526,-0.1725 0.38526,-0.38526v-8.47557c-0.00005,-0.21276 -0.1725,-0.38526 -0.38526,-0.38526z" fill="#fcde76"></path><path d="M13.99117,32.47579v-9.2461h1.15574v9.2461z" fill="#fccf6f"></path><path d="M15.91759,25.92664c-0.73643,0 -1.41219,0.16167 -1.94231,0.43097v2.99061c0.53012,0.2693 1.20588,0.43097 1.94231,0.43097c1.70215,0 3.08202,-0.86246 3.08202,-1.92627c0,-1.06386 -1.37987,-1.92627 -3.08202,-1.92627z" fill="#f59f3f"></path><path d="M13.97528,26.35756v2.99061c0.33441,0.1699 0.72685,0.2968 1.15574,0.36745v-3.72546c-0.42894,0.07065 -0.82138,0.19759 -1.15574,0.3674z" fill="#f2821c"></path><path d="M20.1554,15.91001h-3.85255c-0.21276,0 -0.38526,-0.1725 -0.38526,-0.38526c0,-0.21276 0.1725,-0.38526 0.38526,-0.38526h3.85255c0.21276,0 0.38526,0.1725 0.38526,0.38526c-0.00005,0.21276 -0.1725,0.38526 -0.38526,0.38526z" fill="#696578"></path><g fill="#000000" font-family="Roboto, sans-serif" font-weight="400" font-size="14" text-anchor="start"></g><g fill="#000000" font-family="Roboto, sans-serif" font-weight="400" font-size="14" text-anchor="start"></g><g fill="#000000" font-family="Roboto, sans-serif" font-weight="400" font-size="14" text-anchor="start"></g><g fill="#000000" font-family="Roboto, sans-serif" font-weight="400" font-size="14" text-anchor="start"></g><g fill="#000000" font-family="Roboto, sans-serif" font-weight="400" font-size="14" text-anchor="start"></g><g fill="#000000" font-family="Roboto, sans-serif" font-weight="400" font-size="14" text-anchor="start"></g><g fill="#000000" font-family="Roboto, sans-serif" font-weight="400" font-size="14" text-anchor="start"></g><g fill="#000000" font-family="Roboto, sans-serif" font-weight="400" font-size="14" text-anchor="start"></g><g fill="#000000" font-family="Roboto, sans-serif" font-weight="400" font-size="14" text-anchor="start"></g><g fill="#000000" font-family="Roboto, sans-serif" font-weight="400" font-size="14" text-anchor="start"></g><g fill="#000000" font-family="Roboto, sans-serif" font-weight="400" font-size="14" text-anchor="start"></g><g fill="#000000" font-family="Roboto, sans-serif" font-weight="400" font-size="14" text-anchor="start"></g><g fill="#000000" font-family="Roboto, sans-serif" font-weight="400" font-size="14" text-anchor="start"></g><g fill="#000000" font-family="Roboto, sans-serif" font-weight="400" font-size="14" text-anchor="start"></g><g fill="#000000" font-family="Roboto, sans-serif" font-weight="400" font-size="14" text-anchor="start"></g></g><path d="M2,24c0,-12.15026 9.84974,-22 22,-22c12.15026,0 22,9.84974 22,22c0,12.15026 -9.84974,22 -22,22c-12.15026,0 -22,-9.84974 -22,-22z" id="base 1 1 1" fill="none" stroke-width="1"></path><g id="Layer_1 1 1" fill="#000000" stroke-width="1" font-family="Roboto, sans-serif" font-weight="400" font-size="14" text-anchor="start"><g></g><g></g><g></g><g></g><g></g><g></g><g></g><g></g><g></g><g></g><g></g><g></g><g></g><g></g><g></g><g></g><g></g><g></g></g><rect x="2" y="2" width="44" height="22" fill="none" stroke-width="1"></rect><path d="M2,24v-22h44v22z" fill="none" stroke-width="1"></path><path d="M2,24v-22h44v22z" fill="none" stroke-width="1"></path><path d="M2,24v-22h44v22z" fill="none" stroke-width="1"></path><path d="M2,24v-22h44v22z" fill="none" stroke-width="1"></path></g></svg>